<svg xmlns="http://www.w3.org/2000/svg" viewBox="0 0 100 126" width="90" height="126" fill="none">
  <!-- Cuerpo del diente -->
  <path d="M50 120 C30 120, 10 100, 10 60 C10 20, 30 10, 50 10 C70 10, 90 20, 90 60 C90 100, 70 120, 50 120 Z" fill="#ffffff" stroke="#1a1a1a" stroke-width="6"/>
  <!-- Raíces (separación inferior) -->
  <path d="M50 120 L50 90" stroke="#1a1a1a" stroke-width="6" stroke-linecap="round"/>
  <path d="M30 120 C40 120, 45 110, 50 90 C55 110, 60 120, 70 120" fill="#ffffff" stroke="#1a1a1a" stroke-width="6" stroke-linecap="round" stroke-linejoin="round"/>
  <!-- Ojos -->
  <line x1="35" y1="50" x2="35" y2="60" stroke="#1a1a1a" stroke-width="6" stroke-linecap="round"/>
  <line x1="65" y1="50" x2="65" y2="60" stroke="#1a1a1a" stroke-width="6" stroke-linecap="round"/>
  <!-- Sonrisa -->
  <path d="M40 70 Q50 85 60 70" stroke="#1a1a1a" stroke-width="6" stroke-linecap="round" fill="none"/>
</svg>
